<?xml version="1.0" encoding="UTF-8"?>
<svg id="Layer_1" data-name="Layer 1" xmlns="http://www.w3.org/2000/svg" xmlns:xlink="http://www.w3.org/1999/xlink" viewBox="0 0 300 72">
  <defs>
    <style>
      .cls-1 {
        fill: #0090c6;
      }

      .cls-2 {
        fill: #8cc875;
      }

      .cls-3 {
        clip-path: url(#clippath-4);
      }

      .cls-4 {
        fill: url(#linear-gradient-2);
      }

      .cls-5 {
        mask: url(#mask-1);
      }

      .cls-6 {
        filter: url(#luminosity-noclip-5);
      }

      .cls-7 {
        fill: #fff;
      }

      .cls-8 {
        mask: url(#mask);
      }

      .cls-9 {
        fill: #60c6ee;
      }

      .cls-10 {
        filter: url(#luminosity-noclip-2);
      }

      .cls-11 {
        fill: none;
      }

      .cls-12 {
        fill: url(#linear-gradient-4);
      }

      .cls-13 {
        mask: url(#mask-2);
      }

      .cls-14 {
        filter: url(#luminosity-noclip-3);
      }

      .cls-15 {
        fill: #212255;
      }

      .cls-16 {
        fill: url(#linear-gradient-3);
      }

      .cls-17 {
        clip-path: url(#clippath-1);
      }

      .cls-18 {
        fill: url(#linear-gradient-5);
      }

      .cls-19 {
        fill: #25408e;
      }

      .cls-20 {
        clip-path: url(#clippath-3);
      }

      .cls-21 {
        fill: #1e742e;
      }

      .cls-22 {
        fill: #2f8d3b;
      }

      .cls-23 {
        filter: url(#luminosity-noclip-4);
      }

      .cls-24 {
        clip-path: url(#clippath-2);
      }

      .cls-25 {
        mask: url(#mask-4);
      }

      .cls-26 {
        fill: url(#linear-gradient);
      }

      .cls-27 {
        clip-path: url(#clippath);
      }

      .cls-28 {
        mask: url(#mask-3);
      }

      .cls-29 {
        filter: url(#luminosity-noclip);
      }
    </style>
    <filter id="luminosity-noclip" x="3.62" y="-7.37" width="279.13" height="85.63" color-interpolation-filters="sRGB" filterUnits="userSpaceOnUse">
      <feFlood flood-color="#fff" result="bg"/>
      <feBlend in="SourceGraphic" in2="bg"/>
    </filter>
    <linearGradient id="linear-gradient" x1="-147.86" y1="457.83" x2="-147.59" y2="457.83" gradientTransform="translate(-31165.42 -97034.14) rotate(180) scale(212.02 -212.02)" gradientUnits="userSpaceOnUse">
      <stop offset="0" stop-color="#fff"/>
      <stop offset="1" stop-color="#000"/>
    </linearGradient>
    <mask id="mask" x="3.62" y="-7.37" width="279.13" height="85.63" maskUnits="userSpaceOnUse">
      <g class="cls-29">
        <rect class="cls-26" x="105.24" y="-102.79" width="76.03" height="276.49" transform="translate(102.83 177.38) rotate(-88)"/>
      </g>
    </mask>
    <clipPath id="clippath">
      <rect class="cls-11" x="3.62" y="3.81" width="67.91" height="65.17"/>
    </clipPath>
    <filter id="luminosity-noclip-2" x="-24.47" y="-123.87" width="335.46" height="318.65" color-interpolation-filters="sRGB" filterUnits="userSpaceOnUse">
      <feFlood flood-color="#fff" result="bg"/>
      <feBlend in="SourceGraphic" in2="bg"/>
    </filter>
    <linearGradient id="linear-gradient-2" x1="-145.05" y1="451.7" x2="-144.78" y2="451.7" gradientTransform="translate(31989.62 -10267.99) rotate(-90) scale(70.5 -70.5)" xlink:href="#linear-gradient"/>
    <mask id="mask-1" x="-24.47" y="-123.87" width="335.46" height="318.65" maskUnits="userSpaceOnUse">
      <g class="cls-10">
        <rect class="cls-4" x="39.99" y="-97.37" width="206.53" height="265.64" transform="translate(34.8 135.53) rotate(-56.6)"/>
      </g>
    </mask>
    <clipPath id="clippath-1">
      <rect class="cls-11" x="17.82" y="23.07" width="31.88" height="35.16"/>
    </clipPath>
    <filter id="luminosity-noclip-3" x="-18.15" y="-97.79" width="322.81" height="266.48" color-interpolation-filters="sRGB" filterUnits="userSpaceOnUse">
      <feFlood flood-color="#fff" result="bg"/>
      <feBlend in="SourceGraphic" in2="bg"/>
    </filter>
    <linearGradient id="linear-gradient-3" x1="-147.01" y1="455.91" x2="-146.74" y2="455.91" gradientTransform="translate(-25132.88 -78259.7) rotate(-180) scale(171.74 -171.74)" xlink:href="#linear-gradient"/>
    <mask id="mask-2" x="-18.15" y="-97.79" width="322.81" height="266.48" maskUnits="userSpaceOnUse">
      <g class="cls-14">
        <rect class="cls-16" x="4.16" y="-49.54" width="278.19" height="169.98" transform="translate(-2.3 59.81) rotate(-23.4)"/>
      </g>
    </mask>
    <clipPath id="clippath-2">
      <rect class="cls-11" x="34.9" y=".28" width="60.26" height="57.92"/>
    </clipPath>
    <filter id="luminosity-noclip-4" x="-11.24" y="-69.26" width="308.98" height="209.43" color-interpolation-filters="sRGB" filterUnits="userSpaceOnUse">
      <feFlood flood-color="#fff" result="bg"/>
      <feBlend in="SourceGraphic" in2="bg"/>
    </filter>
    <linearGradient id="linear-gradient-4" x1="-146.58" y1="456.08" x2="-146.3" y2="456.08" gradientTransform="translate(-29579.12 -92405.88) rotate(-180) scale(202.69 -202.69)" xlink:href="#linear-gradient"/>
    <mask id="mask-3" x="-11.24" y="-69.26" width="308.98" height="209.43" maskUnits="userSpaceOnUse">
      <g class="cls-23">
        <rect class="cls-12" x="2.21" y="-33.67" width="282.1" height="138.25" transform="translate(-4.25 40.09) rotate(-15.7)"/>
      </g>
    </mask>
    <clipPath id="clippath-3">
      <rect class="cls-11" x="34.9" y=".28" width="60.26" height="57.92"/>
    </clipPath>
    <filter id="luminosity-noclip-5" x="-7.96" y="-55.77" width="302.44" height="182.44" color-interpolation-filters="sRGB" filterUnits="userSpaceOnUse">
      <feFlood flood-color="#fff" result="bg"/>
      <feBlend in="SourceGraphic" in2="bg"/>
    </filter>
    <linearGradient id="linear-gradient-5" x1="-149.39" y1="451.71" x2="-149.11" y2="451.71" gradientTransform="translate(-7424.66 -22551.48) rotate(-180) scale(50 -50)" xlink:href="#linear-gradient"/>
    <mask id="mask-4" x="-7.96" y="-55.77" width="302.44" height="182.44" maskUnits="userSpaceOnUse">
      <g class="cls-6">
        <rect class="cls-18" x="2.14" y="-26.7" width="282.23" height="124.3" transform="translate(-4.28 31.85) rotate(-12.5)"/>
      </g>
    </mask>
    <clipPath id="clippath-4">
      <rect class="cls-11" x="17.82" y="23.07" width="31.88" height="35.16"/>
    </clipPath>
  </defs>
  <path class="cls-7" d="M128.53,26.16v-3.64h3.82c1.43,0,1.83.93,1.83,1.81,0,.95-.46,1.83-1.83,1.83h-3.82ZM125.84,33.89h2.68v-5.19h2.8l2.61,5.19h3.02l-2.7-5.55c1.81-.64,2.7-2.45,2.7-4.02,0-2.29-1.15-4.36-4.65-4.36h-6.46v13.92ZM114.24,33.89h9.92v-2.55h-7.24v-3.36h4.02v-2.55h-4.02v-2.92h6.82v-2.55h-9.51v13.92ZM108,31.39h-3.84v-3.44h3.28c1.97,0,2.41.91,2.41,1.81,0,.74-.42,1.63-1.85,1.63M107.26,25.44h-3.1v-2.96h3.46c1.47,0,1.75.76,1.75,1.47,0,.89-.68,1.49-2.11,1.49M101.47,19.97v13.92h6.38c3.48,0,4.71-2.17,4.71-4.14,0-1.21-.6-2.63-2.17-3.2,1.21-.58,1.69-1.67,1.69-2.84,0-1.89-1.11-3.74-4.51-3.74h-6.11ZM92.68,33.89h2.66v-5.43l5.15-8.49h-3.04l-3.44,5.69-3.44-5.69h-3.04l5.15,8.49v5.43ZM82.36,34.11c2.53,0,4.08-1.41,4.99-3.44l-2.47-.93c-.64,1.05-1.39,1.79-2.53,1.79-2.15,0-3.06-2.45-3.06-4.59s.74-4.59,3.06-4.59c1.21,0,1.87.6,2.57,1.65l2.41-1.09c-.64-1.57-2.31-3.14-4.97-3.14-4.32,0-5.85,4-5.85,7.18,0,3.44,1.49,7.18,5.85,7.18"/>
  <path class="cls-7" d="M181.97,51.59c2.82,0,5.03-1.53,5.03-4.24,0-3-2.61-3.88-4.67-4.57-1.37-.46-2.53-.84-2.53-1.71s.68-1.33,1.85-1.33c1.29,0,2.01.64,2.39,1.47l2.41-.8c-.52-1.83-2.15-3.22-4.63-3.22-3,0-4.71,1.75-4.71,3.84,0,2.76,2.35,3.54,4.38,4.22,1.51.5,2.82.93,2.82,2.11s-.9,1.69-2.25,1.69-2.45-.89-3.04-2.19l-2.45.91c.8,2.37,2.78,3.82,5.41,3.82M166.26,51.35h9.41v-2.59h-6.72v-11.34h-2.68v13.92ZM160.39,46.02h-3.62l1.37-3.62c.14-.36.34-.9.44-1.25.1.36.3.89.44,1.25l1.37,3.62ZM162.34,51.35h2.88l-5.33-13.92h-2.63l-5.33,13.92h2.88l1.07-2.88h5.37l1.07,2.88ZM148.32,51.35h2.68v-13.92h-2.68v13.92ZM142.75,40.02h3.98v-2.59h-10.64v2.59h3.98v11.34h2.68v-11.34ZM134.6,51.35v-13.92h-2.66v8.01c0,.26.02.74.06,1.05-.16-.34-.42-.8-.58-1.05l-5.39-8.01h-2.53v13.92h2.66v-8.11c0-.3-.02-.72-.06-1.05.16.34.42.82.58,1.05l5.53,8.11h2.39ZM111.89,51.35h9.92v-2.55h-7.24v-3.36h4.02v-2.55h-4.02v-2.92h6.82v-2.55h-9.51v13.92ZM105.27,51.59c2.82,0,5.03-1.53,5.03-4.24,0-3-2.61-3.88-4.67-4.57-1.37-.46-2.53-.84-2.53-1.71s.68-1.33,1.85-1.33c1.29,0,2.01.64,2.39,1.47l2.41-.8c-.52-1.83-2.15-3.22-4.63-3.22-3,0-4.71,1.75-4.71,3.84,0,2.76,2.35,3.54,4.38,4.22,1.51.5,2.82.93,2.82,2.11s-.89,1.69-2.25,1.69-2.45-.89-3.04-2.19l-2.45.91c.8,2.37,2.78,3.82,5.41,3.82M93.43,51.59c2.82,0,5.03-1.53,5.03-4.24,0-3-2.61-3.88-4.67-4.57-1.37-.46-2.53-.84-2.53-1.71s.68-1.33,1.85-1.33c1.29,0,2.01.64,2.39,1.47l2.41-.8c-.52-1.83-2.15-3.22-4.63-3.22-3,0-4.71,1.75-4.71,3.84,0,2.76,2.35,3.54,4.38,4.22,1.51.5,2.82.93,2.82,2.11s-.89,1.69-2.25,1.69-2.45-.89-3.04-2.19l-2.45.91c.8,2.37,2.78,3.82,5.41,3.82M77.01,51.35h9.92v-2.55h-7.24v-3.36h4.02v-2.55h-4.02v-2.92h6.82v-2.55h-9.51v13.92Z"/>
  <g>
    <path class="cls-15" d="M37.57,68.7c17.39,0,31.49-14.1,31.49-31.49S54.97,5.72,37.57,5.72,6.09,19.82,6.09,37.21s14.1,31.49,31.49,31.49"/>
    <g class="cls-8">
      <g class="cls-27">
        <path class="cls-1" d="M37.57,68.7c17.39,0,31.49-14.1,31.49-31.49S54.97,5.72,37.57,5.72,6.09,19.82,6.09,37.21s14.1,31.49,31.49,31.49"/>
      </g>
    </g>
    <path class="cls-2" d="M47.24,25.31c-.88,1.22-1.95,2.31-3.16,3.23-2.78,2.13-6.34,3.41-10.21,3.41-5.21,0-9.82-2.32-12.78-5.9-.28-.34-.55-.7-.8-1.06,1.76,13.42,7.24,22.44,15.93,31.47.17.17.34.35.51.52.32.33.63.65.96.98,0-.01,0-.02.01-.03-.19-.91-2.65-13.87,9.55-32.62"/>
    <path class="cls-9" d="M92.68,11.63h0s-5.08-7.38-11.05-8.87c-4.28-1.07-8.37-.68-13.09,1.74-.04.02-.07.04-.11.06-.57.29-1.15.63-1.74.98-5,3.01-10.81,7.85-16.51,15.54-.17.23-.34.44-.52.68-.81,1.12-1.56,2.21-2.26,3.3-.06.08-.11.17-.16.25-12.2,18.75-9.74,31.71-9.55,32.62,0-.02.01-.04.02-.05,3.03-8.31,8.69-17.32,16.57-25.53,12.55-13.08,27.34-20.64,38.41-20.7,0,0,0,0,0-.01"/>
    <g class="cls-5">
      <g class="cls-17">
        <path class="cls-22" d="M47.24,25.31c-.88,1.22-1.95,2.31-3.16,3.23-2.78,2.13-6.34,3.41-10.21,3.41-5.21,0-9.82-2.32-12.78-5.9-.28-.34-.55-.7-.8-1.06,1.76,13.42,7.24,22.44,15.93,31.47.17.17.34.35.51.52.32.33.63.65.96.98,0-.01,0-.02.01-.03-.19-.91-2.65-13.87,9.55-32.62"/>
      </g>
    </g>
    <g class="cls-13">
      <g class="cls-24">
        <path class="cls-1" d="M92.68,11.63h0s-5.08-7.38-11.05-8.87c-4.28-1.07-8.37-.68-13.09,1.74-.04.02-.07.04-.11.06-.57.29-1.15.63-1.74.98-5,3.01-10.81,7.85-16.51,15.54-.17.23-.34.44-.52.68-.81,1.12-1.56,2.21-2.26,3.3-.06.08-.11.17-.16.25-12.2,18.75-9.74,31.71-9.55,32.62,0-.02.01-.04.02-.05,3.03-8.31,8.69-17.32,16.57-25.53,12.55-13.08,27.34-20.64,38.41-20.7,0,0,0,0,0-.01"/>
      </g>
    </g>
    <g class="cls-28">
      <g class="cls-20">
        <path class="cls-19" d="M92.68,11.63h0s-5.08-7.38-11.05-8.87c-4.28-1.07-8.37-.68-13.09,1.74-.04.02-.07.04-.11.06-.57.29-1.15.63-1.74.98-5,3.01-10.81,7.85-16.51,15.54-.17.23-.34.44-.52.68-.81,1.12-1.56,2.21-2.26,3.3-.06.08-.11.17-.16.25-12.2,18.75-9.74,31.71-9.55,32.62,0-.02.01-.04.02-.05,3.03-8.31,8.69-17.32,16.57-25.53,12.55-13.08,27.34-20.64,38.41-20.7,0,0,0,0,0-.01"/>
      </g>
    </g>
    <g class="cls-25">
      <g class="cls-3">
        <path class="cls-21" d="M47.24,25.31c-.88,1.22-1.95,2.31-3.16,3.23-2.78,2.13-6.34,3.41-10.21,3.41-5.21,0-9.82-2.32-12.78-5.9-.28-.34-.55-.7-.8-1.06,1.76,13.42,7.24,22.44,15.93,31.47.17.17.34.35.51.52.32.33.63.65.96.98,0-.01,0-.02.01-.03-.19-.91-2.65-13.87,9.55-32.62"/>
      </g>
    </g>
  </g>
</svg>